<?xml version="1.0" encoding="utf-8"?>
<!-- Generator: Adobe Illustrator 18.1.1, SVG Export Plug-In . SVG Version: 6.00 Build 0)  -->
<svg version="1.1" id="Layer_1" xmlns="http://www.w3.org/2000/svg" xmlns:xlink="http://www.w3.org/1999/xlink" x="0px" y="0px"
	 viewBox="-381 289 36 36" enable-background="new -381 289 36 36" xml:space="preserve">
<g>
	<path fill="#0079BE" d="M-363,289c-9.9,0-18,8.1-18,18s8.1,18,18,18s18-8.1,18-18S-353.1,289-363,289z M-368.6,314.9v-15.8
		l15.8,7.9L-368.6,314.9z"/>
</g>
<g opacity="0.7">
	<linearGradient id="SVGID_1_" gradientUnits="userSpaceOnUse" x1="-336.8161" y1="339.1934" x2="-395.1858" y2="267.4273">
		<stop  offset="0" style="stop-color:#FFFFFF"/>
		<stop  offset="1" style="stop-color:#000000"/>
	</linearGradient>
	<path fill="url(#SVGID_1_)" d="M-363,289c-9.9,0-18,8.1-18,18s8.1,18,18,18s18-8.1,18-18S-353.1,289-363,289z M-368.6,314.9v-15.8
		l15.8,7.9L-368.6,314.9z"/>
</g>
</svg>
